<?xml version="1.0" encoding="utf-8"?>
<!-- Generator: Adobe Illustrator 26.3.1, SVG Export Plug-In . SVG Version: 6.00 Build 0)  -->
<svg version="1.1" id="Layer_1" xmlns="http://www.w3.org/2000/svg" xmlns:xlink="http://www.w3.org/1999/xlink" x="0px" y="0px"
	 viewBox="0 0 512 512" style="enable-background:new 0 0 512 512;" xml:space="preserve">
<style type="text/css">
	.st0{fill:#7A97AB;}
	.st1{fill:#FFFFFF;}
	.st2{fill:#131E29;}
	.st3{fill:#7E4C37;}
	.st4{fill:#C36D15;}
	.st5{fill:none;}
	.st6{fill:none;stroke:#FFFFFF;stroke-width:8.2406;stroke-miterlimit:10;}
</style>
<rect class="st0" width="512" height="512"/>
<polygon class="st1" points="277.2,84.9 203,84.9 178.5,102.4 145.1,102.4 102.7,135.7 102.7,236.9 83.6,321.9 0,414.7 0,512 
	313.2,512 315.1,331.1 342,338.6 402.3,336.5 429.2,328.6 429.2,301.5 421.4,267.3 434.1,224.9 437.7,145.7 337.9,145.7 "/>
<rect x="398" y="184.5" class="st2" width="15.1" height="15.4"/>
<rect x="398" y="207.4" class="st2" width="15.1" height="15.4"/>
<rect x="375.1" y="184.5" class="st2" width="15.1" height="15.4"/>
<rect x="375.1" y="207.4" class="st2" width="15.1" height="15.4"/>
<rect x="386.6" y="229.5" class="st2" width="15.1" height="15.4"/>
<polygon class="st3" points="263.3,118.2 322.4,167.8 297.1,261.5 238.4,135.7 "/>
<path class="st4" d="M98.6,135.7l52.6-37.5h38.3L258,249c0,0-81.9,78.3-111.7,20L98.6,135.7z"/>
<line class="st5" x1="302.4" y1="155.3" x2="283.3" y2="167.8"/>
<path class="st6" d="M276.8,167.4"/>
<path class="st6" d="M260.4,151.1"/>
<path class="st2" d="M284.1,157.8c1.6,5.8,5.3,12.9,8.2,12.9c5.7,0,12.6-4.6,12.6-10h0.8l-7.3-11.7L284.1,157.8z"/>
<polygon class="st2" points="263.8,138.3 305.5,118.3 313.6,136.1 272,156.1 "/>
<g>
	<path class="st2" d="M282.9,71.6h-85.6l-13,12.9h-37.1l-64.4,45.8l2.9,8.3l4.1,45.4l-9,102.1c-1.6,16.7-8.2,32.5-19.2,44.6L0,399.7
		v40.2L80.7,349c15.1-16.7,24-38.3,26.1-60.8l6.1-72.1l20.4,57.5l0.8,1.7c8.2,15.8,20.4,25.4,35.9,27.9c2.9,0.4,6.1,0.8,9,0.8
		c39.1,0,82.7-40.4,88-45.4l6.9-6.7l-68.1-150.8l2.4-2.5h63.6l60.7,60.8h64.8l25.7,25l-1.6,40c-1.2,31.2-20.8,57.9-49.7,68.3
		L299.6,319v193h26.5V348.6c9.4,2.9,21.6,5.8,34.6,5.8c0,0,0,0,0.4,0c43.6,0,69.7-9.2,79.5-27.1c2-3.7,5.7-10.4-4.5-57.5
		c6.9-13.3,11-28.3,11.8-43.7l3.7-93.7H343.2L282.9,71.6z M241.7,245.3c-15.9,13.3-46.5,34.6-66.8,31.2c-4.5-0.8-10.6-2.9-16.3-12.9
		l-44-122.9l40.8-29.2H181L241.7,245.3z M360.3,326.9c-1.6,0-2.9,0-4.5,0l24-8.7c12.6-4.6,24-11.7,33.8-20.4c1.2,7.5,2,14.2,2,17.5
		C410.8,320.7,394.1,326.9,360.3,326.9z"/>
	<path class="st2" d="M263.7,108.6l-35.1,24.2l70.1,150.8L331,164.9L263.7,108.6z M295.1,239.4l-46.9-101.2l14.7-10.4l50.5,42.9
		L295.1,239.4z"/>
</g>
<path class="st1" d="M304.9,160.7c0,5.4-6.9,10-12.6,10c-2.9,0-6.5-7.1-8.2-12.9l22.4-13.7l-2-3.3l-32.6,15.4v-0.4
	c0.8,7.1,6.5,26.7,20.4,26.7c11.4,0,24-8.7,24-21.7C316.3,160.7,304.9,160.7,304.9,160.7z"/>
</svg>
