
<svg version="1.1"  xmlns="http://www.w3.org/2000/svg" xmlns:xlink="http://www.w3.org/1999/xlink" x="0px" y="0px"
	 viewBox="0 0 64 64" style="enable-background:new 0 0 64 64;" xml:space="preserve">
<path fill="#000" d="M52.5,31.9c0,3.1-0.7,6-1.9,8.6L39,12.6C46.9,15.5,52.5,23.1,52.5,31.9z M33.2,11.4l14.2,34.1
	c-3.8,4.3-9.3,6.9-15.4,6.9c-11.3,0-20.5-9.2-20.5-20.5c0-11.3,9.2-20.5,20.5-20.5C32.4,11.4,32.8,11.4,33.2,11.4z M41.8,41.6
	l-9.7-23.2l-9.9,23.2H41.8z M37.9,9.9l-3.8-9.1l-2.7,6.4l0.8,2C34.2,9.1,36.1,9.4,37.9,9.9z M48.4,47.9l1,2.3h5.4l-2.9-6.9
	C50.9,44.9,49.7,46.5,48.4,47.9z"/>
</svg>
